<svg id="SvgjsSvg1006" width="5000px" height="1054.7875064004097px" xmlns="http://www.w3.org/2000/svg" version="1.1" xmlns:xlink="http://www.w3.org/1999/xlink" xmlns:svgjs="http://svgjs.com/svgjs" viewBox="0 0 488.25 103"><defs id="SvgjsDefs1007"></defs><g id="SvgjsG1009" transform="rotate(0 50 50)"><svg height="100" viewBox="0 0 128 128" xmlns="http://www.w3.org/2000/svg" version="1.1" xmlns:xlink="http://www.w3.org/1999/xlink" xmlns:svgjs="http://svgjs.com/svgjs" preserveAspectRatio="none" width="100" x="0" y="0"><g><svg data-color="1" xmlns="http://www.w3.org/2000/svg" xmlns:xlink="http://www.w3.org/1999/xlink" version="1.1" x="0px" y="0px" viewBox="0 0 128 128" style="enable-background:new 0 0 128 128;" xml:space="preserve" fill="#0f92e3"><g><path d="M29.5,29.5H0v29.5h9.8V39.4h19.7v9.8h-9.8v9.8h39.4V19.7h-9.8v9.8h-9.8V9.8h19.7V0H29.5V29.5z M39.4,39.4h9.8v9.8h-9.8   V39.4z"></path><path d="M19.7,78.8h9.8v9.8H9.8V68.9H0v29.5h29.5V128h29.5v-9.8H39.4V98.5h9.8v9.8h9.8V68.9H19.7V78.8z M39.4,78.8h9.8v9.8h-9.8   V78.8z"></path><path d="M118.2,88.6H98.5v-9.8h9.8v-9.8H68.9v39.4h9.8v-9.8h9.8v19.7H68.9v9.8h29.5V98.5H128V68.9h-9.8V88.6z M88.6,88.6h-9.8v-9.8   h9.8V88.6z"></path><path d="M98.5,29.5V0H68.9v9.8h19.7v19.7h-9.8v-9.8h-9.8v39.4h39.4v-9.8h-9.8v-9.8h19.7v19.7h9.8V29.5H98.5z M88.6,49.2h-9.8v-9.8   h9.8V49.2z"></path></g></svg></g><defs id="SvgjsDefs1008"></defs></svg></g><g id="SvgjsG1011" transform="rotate(0 297.625 33.796875)"><svg xmlns="http://www.w3.org/2000/svg" xmlns:xlink="http://www.w3.org/1999/xlink" width="381.25" viewBox="0.9500000476837158 9.729999542236328 381.25 24.700000762939453" overflow="visible" style="overflow: visible;" transform="" version="1.1" xmlns:svgjs="http://svgjs.com/svgjs" preserveAspectRatio="none" height="24.6875" x="107" y="21.453125" fill="#000000" stroke="none"><path stroke="none" fill="#262525" d="M17.25 9.92L17.44 10.15L17.25 11.67L13.19 11.55L10.22 11.55L10.11 26.71L10.18 34.20L8.21 34.20L8.32 26.83L8.21 11.55L5.24 11.55L1.10 11.67L0.95 11.44L1.14 9.92L17.25 9.92ZM25.44 9.77L25.44 9.77Q27.94 9.77 30.49 10.91L30.49 10.91L30.15 12.73L29.77 12.84L29.77 12.84Q28.70 12.16 27.51 11.80L27.51 11.80L27.51 11.80Q26.31 11.44 25.21 11.44L25.21 11.44L25.21 11.44Q23.61 11.44 22.41 12.10L22.41 12.10L22.41 12.10Q21.22 12.77 20.59 13.83L20.59 13.83L20.59 13.83Q19.96 14.90 19.96 16.00L19.96 16.00L19.96 16.00Q19.96 17.18 20.65 18.05L20.65 18.05L20.65 18.05Q21.33 18.92 22.34 19.55L22.34 19.55L22.34 19.55Q23.35 20.18 25.06 20.98L25.06 20.98L25.06 20.98Q27.07 21.96 28.30 22.74L28.30 22.74L28.30 22.74Q29.54 23.52 30.41 24.76L30.41 24.76L30.41 24.76Q31.29 25.99 31.29 27.74L31.29 27.74L31.29 27.74Q31.29 29.53 30.32 31.06L30.32 31.06L30.32 31.06Q29.35 32.60 27.58 33.50L27.58 33.50L27.58 33.50Q25.82 34.39 23.61 34.39L23.61 34.39L23.61 34.39Q22.05 34.39 20.42 33.95L20.42 33.95L20.42 33.95Q18.79 33.52 17.46 32.68L17.46 32.68L17.68 30.67L17.95 30.55L17.95 30.55Q19.20 31.65 20.76 32.20L20.76 32.20L20.76 32.20Q22.32 32.76 23.76 32.76L23.76 32.76L23.76 32.76Q25.44 32.76 26.69 32.07L26.69 32.07L26.69 32.07Q27.94 31.39 28.63 30.29L28.63 30.29L28.63 30.29Q29.31 29.18 29.31 27.97L29.31 27.97L29.31 27.97Q29.31 26.71 28.61 25.78L28.61 25.78L28.61 25.78Q27.91 24.85 26.90 24.24L26.90 24.24L26.90 24.24Q25.89 23.64 24.11 22.76L24.11 22.76L24.11 22.76Q22.13 21.81 20.91 21.05L20.91 21.05L20.91 21.05Q19.70 20.29 18.86 19.08L18.86 19.08L18.86 19.08Q18.03 17.86 18.03 16.15L18.03 16.15L18.03 16.15Q18.03 14.40 18.96 12.94L18.96 12.94L18.96 12.94Q19.89 11.48 21.58 10.62L21.58 10.62L21.58 10.62Q23.27 9.77 25.44 9.77L25.44 9.77ZM44.30 9.73L44.30 9.73Q47.87 9.73 51.29 11.63L51.29 11.63L50.83 13.45L50.53 13.49L50.53 13.49Q47.11 11.44 44.07 11.44L44.07 11.44L44.07 11.44Q39.51 11.44 37.13 14.19L37.13 14.19L37.13 14.19Q34.76 16.95 34.76 22.34L34.76 22.34L34.76 22.34Q34.76 27.51 36.89 30.10L36.89 30.10L36.89 30.10Q39.02 32.68 43.20 32.68L43.20 32.68L43.20 32.68Q44.64 32.68 45.91 32.47L45.91 32.47L45.91 32.47Q47.19 32.26 49.20 31.69L49.20 31.69L49.24 28.16L49.20 24.66L51.10 24.51L51.06 27.93L51.14 33.06L51.14 33.06Q48.59 33.78 46.82 34.09L46.82 34.09L46.82 34.09Q45.06 34.39 43.16 34.43L43.16 34.43L43.16 34.43Q38.03 34.43 35.39 31.31L35.39 31.31L35.39 31.31Q32.75 28.20 32.75 22.42L32.75 22.42L32.75 22.42Q32.75 16.30 35.75 13.01L35.75 13.01L35.75 13.01Q38.75 9.73 44.30 9.73L44.30 9.73ZM67.05 11.63L62.38 11.67L62.30 21.28L66.75 21.32L70.62 21.24L70.81 21.47L70.58 22.99L62.30 22.95L62.26 26.71L62.34 34.20L60.36 34.20L60.48 26.83L60.36 9.92L72.52 9.92L72.71 10.15L72.48 11.74L67.05 11.63ZM88.27 15.39L88.19 25.00L88.19 27.55L88.19 27.55Q88.27 30.78 86.33 32.57L86.33 32.57L86.33 32.57Q84.39 34.35 80.86 34.35L80.86 34.35L80.86 34.35Q77.36 34.35 75.50 32.58L75.50 32.58L75.50 32.58Q73.64 30.82 73.68 27.55L73.68 27.55L73.71 24.78L73.68 15.39L75.58 15.39L75.46 27.32L75.46 27.32Q75.42 29.98 76.83 31.37L76.83 31.37L76.83 31.37Q78.24 32.76 80.93 32.76L80.93 32.76L80.93 32.76Q83.63 32.76 85.04 31.37L85.04 31.37L85.04 31.37Q86.44 29.98 86.44 27.32L86.44 27.32L86.37 15.39L88.27 15.39ZM102.49 32.60L102.65 32.79L102.46 34.20L92.99 34.20L93.03 28.50L92.99 15.39L94.86 15.39L94.78 28.35L94.82 32.60L102.49 32.60ZM110.60 16.95L106.80 16.95L106.76 24.13L110.34 24.17L113.57 24.09L113.72 24.28L113.57 25.73L106.73 25.73L106.73 28.35L106.80 34.20L104.94 34.20L104.98 28.50L104.94 15.39L115.20 15.39L115.31 15.62L115.12 17.06L110.60 16.95ZM119.43 15.39L119.36 28.35L119.39 34.20L117.53 34.20L117.61 28.50L117.53 15.39L119.43 15.39ZM134.46 32.60L134.61 32.79L134.42 34.20L124.96 34.20L124.99 28.50L124.96 15.39L126.82 15.39L126.74 28.35L126.78 32.60L134.46 32.60ZM146.55 32.60L146.71 32.79L146.52 34.20L137.05 34.20L137.09 28.50L137.05 15.39L138.92 15.39L138.84 28.35L138.88 32.60L146.55 32.60ZM166.63 15.39L168.65 34.20L166.94 34.20L166.40 28.46L165.23 18.51L165.04 18.51L159.07 31.96L157.47 31.96L151.74 18.51L151.51 18.51L150.37 28.31L149.80 34.20L148.13 34.20L150.25 15.39L152.46 15.39L153.52 18.28L158.27 29.45L158.42 29.45L163.44 18.05L164.50 15.39L166.63 15.39ZM183.78 32.57L183.97 32.76L183.75 34.20L173.03 34.20L173.11 28.50L173.03 15.39L183.75 15.39L183.90 15.62L183.71 17.06L179.03 16.95L174.93 16.95L174.89 23.71L178.77 23.75L182.11 23.67L182.23 23.90L182.07 25.38L178.62 25.31L174.85 25.35L174.85 28.35L174.89 32.64L178.77 32.64L183.78 32.57ZM202.19 15.35L202.11 28.77L202.11 34.20L200.14 34.20L189.04 18.51L188.89 18.51L188.85 28.12L188.89 34.20L187.14 34.20L187.22 28.65L187.18 15.39L189.16 15.39L200.25 31.12L200.44 31.12L200.44 15.47L202.19 15.35ZM218.24 15.39L218.35 15.62L218.20 17.14L214.82 16.99L212.46 16.99L212.39 28.35L212.46 34.20L210.60 34.20L210.64 28.50L210.60 16.99L208.28 16.99L204.83 17.14L204.67 16.95L204.83 15.39L218.24 15.39ZM232.02 9.77L232.02 9.77Q234.53 9.77 237.08 10.91L237.08 10.91L236.74 12.73L236.36 12.84L236.36 12.84Q235.29 12.16 234.10 11.80L234.10 11.80L234.10 11.80Q232.90 11.44 231.80 11.44L231.80 11.44L231.80 11.44Q230.20 11.44 229.00 12.10L229.00 12.10L229.00 12.10Q227.81 12.77 227.18 13.83L227.18 13.83L227.18 13.83Q226.55 14.90 226.55 16.00L226.55 16.00L226.55 16.00Q226.55 17.18 227.24 18.05L227.24 18.05L227.24 18.05Q227.92 18.92 228.93 19.55L228.93 19.55L228.93 19.55Q229.93 20.18 231.64 20.98L231.64 20.98L231.64 20.98Q233.66 21.96 234.89 22.74L234.89 22.74L234.89 22.74Q236.13 23.52 237.00 24.76L237.00 24.76L237.00 24.76Q237.88 25.99 237.88 27.74L237.88 27.74L237.88 27.74Q237.88 29.53 236.91 31.06L236.91 31.06L236.91 31.06Q235.94 32.60 234.17 33.50L234.17 33.50L234.17 33.50Q232.40 34.39 230.20 34.39L230.20 34.39L230.20 34.39Q228.64 34.39 227.01 33.95L227.01 33.95L227.01 33.95Q225.37 33.52 224.04 32.68L224.04 32.68L224.27 30.67L224.54 30.55L224.54 30.55Q225.79 31.65 227.35 32.20L227.35 32.20L227.35 32.20Q228.91 32.76 230.35 32.76L230.35 32.76L230.35 32.76Q232.02 32.76 233.28 32.07L233.28 32.07L233.28 32.07Q234.53 31.39 235.22 30.29L235.22 30.29L235.22 30.29Q235.90 29.18 235.90 27.97L235.90 27.97L235.90 27.97Q235.90 26.71 235.20 25.78L235.20 25.78L235.20 25.78Q234.49 24.85 233.49 24.24L233.49 24.24L233.49 24.24Q232.48 23.64 230.69 22.76L230.69 22.76L230.69 22.76Q228.72 21.81 227.50 21.05L227.50 21.05L227.50 21.05Q226.29 20.29 225.45 19.08L225.45 19.08L225.45 19.08Q224.61 17.86 224.61 16.15L224.61 16.15L224.61 16.15Q224.61 14.40 225.55 12.94L225.55 12.94L225.55 12.94Q226.48 11.48 228.17 10.62L228.17 10.62L228.17 10.62Q229.86 9.77 232.02 9.77L232.02 9.77ZM252.18 32.57L252.37 32.76L252.14 34.20L241.42 34.20L241.50 28.50L241.42 15.39L252.14 15.39L252.29 15.62L252.10 17.06L247.43 16.95L243.32 16.95L243.29 23.71L247.16 23.75L250.51 23.67L250.62 23.90L250.47 25.38L247.01 25.31L243.25 25.35L243.25 28.35L243.29 32.64L247.16 32.64L252.18 32.57ZM262.83 26.52L262.83 26.52Q265.23 30.13 268.19 33.74L268.19 33.74L268.19 34.01L268.19 34.01Q267.47 34.31 266.52 34.43L266.52 34.43L266.18 34.24L266.18 34.24Q263.36 30.44 261.24 26.94L261.24 26.94L257.36 26.98L257.36 28.35L257.40 34.20L255.54 34.20L255.61 28.50L255.54 15.39L261.08 15.35L261.08 15.35Q263.97 15.35 265.53 16.74L265.53 16.74L265.53 16.74Q267.09 18.13 267.09 20.67L267.09 20.67L267.09 20.67Q267.09 22.69 265.99 24.21L265.99 24.21L265.99 24.21Q264.88 25.73 262.83 26.52L262.83 26.52ZM257.44 16.95L257.36 25.38L261.31 25.46L261.31 25.46Q263.21 24.97 264.18 23.79L264.18 23.79L264.18 23.79Q265.15 22.61 265.15 20.82L265.15 20.82L265.15 20.82Q265.15 17.10 260.78 16.87L260.78 16.87L257.44 16.95ZM284.96 15.39L277.44 34.20L275.27 34.20L268.39 15.39L270.33 15.39L270.79 17.14L276.34 32.19L276.49 32.19L282.61 17.21L283.06 15.39L284.96 15.39ZM289.50 15.39L289.42 28.35L289.46 34.20L287.60 34.20L287.67 28.50L287.60 15.39L289.50 15.39ZM301.25 15.24L301.25 15.24Q304.37 15.24 306.73 16.72L306.73 16.72L306.35 18.43L306.04 18.51L306.04 18.51Q305.05 17.71 303.78 17.27L303.78 17.27L303.78 17.27Q302.51 16.83 301.10 16.83L301.10 16.83L301.10 16.83Q297.87 16.83 296.18 18.85L296.18 18.85L296.18 18.85Q294.49 20.86 294.49 24.78L294.49 24.78L294.49 24.78Q294.49 28.69 296.14 30.74L296.14 30.74L296.14 30.74Q297.80 32.79 300.91 32.79L300.91 32.79L300.91 32.79Q302.32 32.79 303.74 32.30L303.74 32.30L303.74 32.30Q305.17 31.81 306.35 30.93L306.35 30.93L306.61 31.05L306.46 32.76L306.46 32.76Q303.84 34.39 300.87 34.39L300.87 34.39L300.87 34.39Q296.85 34.39 294.68 31.92L294.68 31.92L294.68 31.92Q292.51 29.45 292.51 24.89L292.51 24.89L292.51 24.89Q292.51 20.25 294.79 17.75L294.79 17.75L294.79 17.75Q297.07 15.24 301.25 15.24L301.25 15.24ZM320.69 32.57L320.88 32.76L320.65 34.20L309.93 34.20L310.01 28.50L309.93 15.39L320.65 15.39L320.80 15.62L320.61 17.06L315.94 16.95L311.83 16.95L311.79 23.71L315.67 23.75L319.01 23.67L319.13 23.90L318.98 25.38L315.52 25.31L311.76 25.35L311.76 28.35L311.79 32.64L315.67 32.64L320.69 32.57ZM329.06 15.28L329.06 15.28Q331.26 15.28 333.32 16.15L333.32 16.15L333.01 17.97L332.67 18.05L332.67 18.05Q330.77 16.76 328.87 16.76L328.87 16.76L328.87 16.76Q326.97 16.76 325.85 17.80L325.85 17.80L325.85 17.80Q324.73 18.85 324.73 20.14L324.73 20.14L324.73 20.14Q324.73 21.39 325.74 22.15L325.74 22.15L325.74 22.15Q326.74 22.91 328.79 23.79L328.79 23.79L328.79 23.79Q330.50 24.59 331.49 25.17L331.49 25.17L331.49 25.17Q332.48 25.76 333.20 26.73L333.20 26.73L333.20 26.73Q333.92 27.70 333.92 29.11L333.92 29.11L333.92 29.11Q333.92 30.51 333.15 31.71L333.15 31.71L333.15 31.71Q332.37 32.91 330.92 33.63L330.92 33.63L330.92 33.63Q329.48 34.35 327.58 34.35L327.58 34.35L327.58 34.35Q326.29 34.35 324.92 34.03L324.92 34.03L324.92 34.03Q323.55 33.71 322.41 33.06L322.41 33.06L322.60 31.12L322.87 31.01L322.87 31.01Q323.85 31.92 325.20 32.39L325.20 32.39L325.20 32.39Q326.55 32.87 327.77 32.87L327.77 32.87L327.77 32.87Q329.67 32.87 330.87 31.82L330.87 31.82L330.87 31.82Q332.06 30.78 332.06 29.37L332.06 29.37L332.06 29.37Q332.06 28.04 331.06 27.26L331.06 27.26L331.06 27.26Q330.05 26.49 327.92 25.50L327.92 25.50L327.92 25.50Q326.29 24.74 325.28 24.15L325.28 24.15L325.28 24.15Q324.27 23.56 323.57 22.61L323.57 22.61L323.57 22.61Q322.87 21.66 322.87 20.29L322.87 20.29L322.87 20.29Q322.87 18.89 323.65 17.75L323.65 17.75L323.65 17.75Q324.42 16.61 325.83 15.94L325.83 15.94L325.83 15.94Q327.24 15.28 329.06 15.28L329.06 15.28ZM344.48 9.92L344.36 26.71L344.44 34.20L342.46 34.20L342.58 26.83L342.46 9.92L344.48 9.92ZM365.09 15.35L365.01 28.77L365.01 34.20L363.04 34.20L351.94 18.51L351.79 18.51L351.75 28.12L351.79 34.20L350.04 34.20L350.12 28.65L350.08 15.39L352.05 15.39L363.15 31.12L363.34 31.12L363.34 15.47L365.09 15.35ZM376.73 15.24L376.73 15.24Q379.85 15.24 382.20 16.72L382.20 16.72L381.82 18.43L381.52 18.51L381.52 18.51Q380.53 17.71 379.26 17.27L379.26 17.27L379.26 17.27Q377.98 16.83 376.58 16.83L376.58 16.83L376.58 16.83Q373.35 16.83 371.66 18.85L371.66 18.85L371.66 18.85Q369.97 20.86 369.97 24.78L369.97 24.78L369.97 24.78Q369.97 28.69 371.62 30.74L371.62 30.74L371.62 30.74Q373.27 32.79 376.39 32.79L376.39 32.79L376.39 32.79Q377.79 32.79 379.22 32.30L379.22 32.30L379.22 32.30Q380.64 31.81 381.82 30.93L381.82 30.93L382.09 31.05L381.94 32.76L381.94 32.76Q379.31 34.39 376.35 34.39L376.35 34.39L376.35 34.39Q372.32 34.39 370.16 31.92L370.16 31.92L370.16 31.92Q367.99 29.45 367.99 24.89L367.99 24.89L367.99 24.89Q367.99 20.25 370.27 17.75L370.27 17.75L370.27 17.75Q372.55 15.24 376.73 15.24L376.73 15.24Z" transform="rotate(0 191.57500004768372 22.079999923706055)"></path><defs id="SvgjsDefs1010"></defs></svg></g><g id="SvgjsG1013" transform="rotate(0 241.234375 68.84375)"><svg xmlns="http://www.w3.org/2000/svg" xmlns:xlink="http://www.w3.org/1999/xlink" width="268.46875" viewBox="0.48000001907348633 2.8400001525878906 268.4700012207031 15.420000076293945" overflow="visible" style="overflow: visible;" transform="" version="1.1" xmlns:svgjs="http://svgjs.com/svgjs" preserveAspectRatio="none" height="15.40625" x="107" y="61.140625" fill="#000000" stroke="none"><path stroke="none" fill="#656565" d="M1.46 3.47L3.54 11.77L3.89 13.54L4.32 11.85L6.79 3.47L7.66 3.47L10.09 11.85L10.52 13.55L10.89 11.77L12.95 3.47L13.93 3.47L11.02 14.84L10.09 14.84L7.52 5.95L7.23 4.82L6.95 5.95L4.30 14.84L3.38 14.84L0.48 3.47L1.46 3.47ZM20.59 15L20.59 15L20.59 15Q19.52 15 18.64 14.47L18.64 14.47L18.64 14.47Q17.77 13.94 17.29 12.99L17.29 12.99L17.29 12.99Q16.80 12.04 16.80 10.86L16.80 10.86L16.80 10.52L16.80 10.52Q16.80 9.30 17.28 8.33L17.28 8.33L17.28 8.33Q17.75 7.35 18.59 6.79L18.59 6.79L18.59 6.79Q19.44 6.23 20.42 6.23L20.42 6.23L20.42 6.23Q21.96 6.23 22.86 7.29L22.86 7.29L22.86 7.29Q23.77 8.34 23.77 10.16L23.77 10.16L23.77 10.68L17.73 10.68L17.73 10.86L17.73 10.86Q17.73 12.30 18.56 13.25L18.56 13.25L18.56 13.25Q19.38 14.21 20.63 14.21L20.63 14.21L20.63 14.21Q21.38 14.21 21.96 13.94L21.96 13.94L21.96 13.94Q22.53 13.66 23 13.06L23 13.06L23.59 13.51L23.59 13.51Q22.55 15 20.59 15ZM20.42 7.03L20.42 7.03L20.42 7.03Q19.37 7.03 18.64 7.80L18.64 7.80L18.64 7.80Q17.92 8.58 17.77 9.88L17.77 9.88L22.84 9.88L22.84 9.78L22.84 9.78Q22.80 8.56 22.14 7.80L22.14 7.80L22.14 7.80Q21.48 7.03 20.42 7.03ZM28.02 2.84L28.02 3.95L27.89 6.33L27.19 6.33L27.19 6.33Q27.23 4.02 27.23 2.84L27.23 2.84L28.02 2.84ZM36.13 6.34L36.10 7.19L36.10 7.19Q35.80 7.13 35.47 7.13L35.47 7.13L35.47 7.13Q34.59 7.13 33.99 7.62L33.99 7.62L33.99 7.62Q33.38 8.11 33.13 9.04L33.13 9.04L33.13 14.84L32.20 14.84L32.20 6.39L33.11 6.39L33.13 7.73L33.13 7.73Q33.87 6.23 35.51 6.23L35.51 6.23L35.51 6.23Q35.90 6.23 36.13 6.34L36.13 6.34ZM42.70 15L42.70 15L42.70 15Q41.63 15 40.75 14.47L40.75 14.47L40.75 14.47Q39.88 13.94 39.40 12.99L39.40 12.99L39.40 12.99Q38.91 12.04 38.91 10.86L38.91 10.86L38.91 10.52L38.91 10.52Q38.91 9.30 39.39 8.33L39.39 8.33L39.39 8.33Q39.86 7.35 40.70 6.79L40.70 6.79L40.70 6.79Q41.55 6.23 42.53 6.23L42.53 6.23L42.53 6.23Q44.07 6.23 44.97 7.29L44.97 7.29L44.97 7.29Q45.88 8.34 45.88 10.16L45.88 10.16L45.88 10.68L39.84 10.68L39.84 10.86L39.84 10.86Q39.84 12.30 40.67 13.25L40.67 13.25L40.67 13.25Q41.49 14.21 42.74 14.21L42.74 14.21L42.74 14.21Q43.49 14.21 44.07 13.94L44.07 13.94L44.07 13.94Q44.64 13.66 45.11 13.06L45.11 13.06L45.70 13.51L45.70 13.51Q44.66 15 42.70 15ZM42.53 7.03L42.53 7.03L42.53 7.03Q41.48 7.03 40.75 7.80L40.75 7.80L40.75 7.80Q40.03 8.58 39.88 9.88L39.88 9.88L44.95 9.88L44.95 9.78L44.95 9.78Q44.91 8.56 44.25 7.80L44.25 7.80L44.25 7.80Q43.59 7.03 42.53 7.03ZM56.52 2.84L56.52 7.82L56.52 7.82Q56.98 7.06 57.70 6.65L57.70 6.65L57.70 6.65Q58.41 6.23 59.27 6.23L59.27 6.23L59.27 6.23Q60.63 6.23 61.29 7L61.29 7L61.29 7Q61.95 7.77 61.96 9.30L61.96 9.30L61.96 14.84L61.03 14.84L61.03 9.29L61.03 9.29Q61.02 8.16 60.55 7.60L60.55 7.60L60.55 7.60Q60.08 7.05 59.04 7.05L59.04 7.05L59.04 7.05Q58.17 7.05 57.50 7.59L57.50 7.59L57.50 7.59Q56.84 8.13 56.52 9.05L56.52 9.05L56.52 14.84L55.59 14.84L55.59 2.84L56.52 2.84ZM69.64 15L69.64 15L69.64 15Q68.56 15 67.69 14.47L67.69 14.47L67.69 14.47Q66.82 13.94 66.34 12.99L66.34 12.99L66.34 12.99Q65.85 12.04 65.85 10.86L65.85 10.86L65.85 10.52L65.85 10.52Q65.85 9.30 66.32 8.33L66.32 8.33L66.32 8.33Q66.80 7.35 67.64 6.79L67.64 6.79L67.64 6.79Q68.48 6.23 69.47 6.23L69.47 6.23L69.47 6.23Q71.01 6.23 71.91 7.29L71.91 7.29L71.91 7.29Q72.81 8.34 72.81 10.16L72.81 10.16L72.81 10.68L66.78 10.68L66.78 10.86L66.78 10.86Q66.78 12.30 67.61 13.25L67.61 13.25L67.61 13.25Q68.43 14.21 69.68 14.21L69.68 14.21L69.68 14.21Q70.43 14.21 71.00 13.94L71.00 13.94L71.00 13.94Q71.58 13.66 72.05 13.06L72.05 13.06L72.63 13.51L72.63 13.51Q71.60 15 69.64 15ZM69.47 7.03L69.47 7.03L69.47 7.03Q68.41 7.03 67.69 7.80L67.69 7.80L67.69 7.80Q66.97 8.58 66.81 9.88L66.81 9.88L71.88 9.88L71.88 9.78L71.88 9.78Q71.84 8.56 71.19 7.80L71.19 7.80L71.19 7.80Q70.53 7.03 69.47 7.03ZM80.56 6.34L80.54 7.19L80.54 7.19Q80.24 7.13 79.91 7.13L79.91 7.13L79.91 7.13Q79.03 7.13 78.43 7.62L78.43 7.62L78.43 7.62Q77.82 8.11 77.56 9.04L77.56 9.04L77.56 14.84L76.63 14.84L76.63 6.39L77.55 6.39L77.56 7.73L77.56 7.73Q78.30 6.23 79.95 6.23L79.95 6.23L79.95 6.23Q80.34 6.23 80.56 6.34L80.56 6.34ZM87.14 15L87.14 15L87.14 15Q86.06 15 85.19 14.47L85.19 14.47L85.19 14.47Q84.32 13.94 83.84 12.99L83.84 12.99L83.84 12.99Q83.35 12.04 83.35 10.86L83.35 10.86L83.35 10.52L83.35 10.52Q83.35 9.30 83.82 8.33L83.82 8.33L83.82 8.33Q84.30 7.35 85.14 6.79L85.14 6.79L85.14 6.79Q85.98 6.23 86.97 6.23L86.97 6.23L86.97 6.23Q88.51 6.23 89.41 7.29L89.41 7.29L89.41 7.29Q90.31 8.34 90.31 10.16L90.31 10.16L90.31 10.68L84.28 10.68L84.28 10.86L84.28 10.86Q84.28 12.30 85.11 13.25L85.11 13.25L85.11 13.25Q85.93 14.21 87.18 14.21L87.18 14.21L87.18 14.21Q87.93 14.21 88.50 13.94L88.50 13.94L88.50 13.94Q89.08 13.66 89.55 13.06L89.55 13.06L90.13 13.51L90.13 13.51Q89.10 15 87.14 15ZM86.97 7.03L86.97 7.03L86.97 7.03Q85.91 7.03 85.19 7.80L85.19 7.80L85.19 7.80Q84.47 8.58 84.31 9.88L84.31 9.88L89.38 9.88L89.38 9.78L89.38 9.78Q89.34 8.56 88.69 7.80L88.69 7.80L88.69 7.80Q88.03 7.03 86.97 7.03ZM100.54 4.23L101.48 4.23L101.48 6.39L103.23 6.39L103.23 7.16L101.48 7.16L101.48 12.79L101.48 12.79Q101.48 13.49 101.73 13.84L101.73 13.84L101.73 13.84Q101.98 14.18 102.58 14.18L102.58 14.18L102.58 14.18Q102.81 14.18 103.34 14.10L103.34 14.10L103.38 14.87L103.38 14.87Q103.01 15 102.38 15L102.38 15L102.38 15Q101.41 15 100.98 14.44L100.98 14.44L100.98 14.44Q100.54 13.88 100.54 12.80L100.54 12.80L100.54 7.16L98.98 7.16L98.98 6.39L100.54 6.39L100.54 4.23ZM106.49 10.68L106.49 10.49L106.49 10.49Q106.49 9.27 106.96 8.30L106.96 8.30L106.96 8.30Q107.44 7.32 108.30 6.78L108.30 6.78L108.30 6.78Q109.16 6.23 110.26 6.23L110.26 6.23L110.26 6.23Q111.95 6.23 112.99 7.42L112.99 7.42L112.99 7.42Q114.04 8.60 114.04 10.55L114.04 10.55L114.04 10.75L114.04 10.75Q114.04 11.98 113.57 12.96L113.57 12.96L113.57 12.96Q113.09 13.94 112.23 14.47L112.23 14.47L112.23 14.47Q111.38 15 110.27 15L110.27 15L110.27 15Q108.59 15 107.54 13.82L107.54 13.82L107.54 13.82Q106.49 12.63 106.49 10.68L106.49 10.68ZM107.43 10.58L107.43 10.75L107.43 10.75Q107.43 12.27 108.21 13.24L108.21 13.24L108.21 13.24Q109 14.21 110.27 14.21L110.27 14.21L110.27 14.21Q111.54 14.21 112.32 13.24L112.32 13.24L112.32 13.24Q113.11 12.27 113.11 10.67L113.11 10.67L113.11 10.49L113.11 10.49Q113.11 9.52 112.75 8.72L112.75 8.72L112.75 8.72Q112.39 7.91 111.74 7.47L111.74 7.47L111.74 7.47Q111.09 7.03 110.26 7.03L110.26 7.03L110.26 7.03Q109.01 7.03 108.22 8.01L108.22 8.01L108.22 8.01Q107.43 8.99 107.43 10.58L107.43 10.58ZM128.92 12.70L128.92 12.70L128.92 12.70Q128.92 12 128.36 11.58L128.36 11.58L128.36 11.58Q127.80 11.16 126.68 10.92L126.68 10.92L126.68 10.92Q125.55 10.68 124.93 10.37L124.93 10.37L124.93 10.37Q124.31 10.06 124.01 9.62L124.01 9.62L124.01 9.62Q123.71 9.17 123.71 8.54L123.71 8.54L123.71 8.54Q123.71 7.54 124.55 6.89L124.55 6.89L124.55 6.89Q125.38 6.23 126.69 6.23L126.69 6.23L126.69 6.23Q128.10 6.23 128.96 6.93L128.96 6.93L128.96 6.93Q129.81 7.63 129.81 8.76L129.81 8.76L128.88 8.76L128.88 8.76Q128.88 8.02 128.25 7.52L128.25 7.52L128.25 7.52Q127.63 7.03 126.69 7.03L126.69 7.03L126.69 7.03Q125.77 7.03 125.21 7.44L125.21 7.44L125.21 7.44Q124.65 7.85 124.65 8.51L124.65 8.51L124.65 8.51Q124.65 9.14 125.11 9.49L125.11 9.49L125.11 9.49Q125.58 9.84 126.81 10.13L126.81 10.13L126.81 10.13Q128.04 10.41 128.65 10.74L128.65 10.74L128.65 10.74Q129.27 11.07 129.56 11.53L129.56 11.53L129.56 11.53Q129.86 11.99 129.86 12.65L129.86 12.65L129.86 12.65Q129.86 13.72 129.00 14.36L129.00 14.36L129.00 14.36Q128.13 15 126.74 15L126.74 15L126.74 15Q125.27 15 124.35 14.29L124.35 14.29L124.35 14.29Q123.43 13.57 123.43 12.48L123.43 12.48L124.37 12.48L124.37 12.48Q124.42 13.30 125.06 13.75L125.06 13.75L125.06 13.75Q125.70 14.21 126.74 14.21L126.74 14.21L126.74 14.21Q127.72 14.21 128.32 13.78L128.32 13.78L128.32 13.78Q128.92 13.35 128.92 12.70ZM137.23 15L137.23 15L137.23 15Q136.16 15 135.29 14.47L135.29 14.47L135.29 14.47Q134.41 13.94 133.93 12.99L133.93 12.99L133.93 12.99Q133.45 12.04 133.45 10.86L133.45 10.86L133.45 10.52L133.45 10.52Q133.45 9.30 133.92 8.33L133.92 8.33L133.92 8.33Q134.39 7.35 135.23 6.79L135.23 6.79L135.23 6.79Q136.08 6.23 137.06 6.23L137.06 6.23L137.06 6.23Q138.60 6.23 139.50 7.29L139.50 7.29L139.50 7.29Q140.41 8.34 140.41 10.16L140.41 10.16L140.41 10.68L134.38 10.68L134.38 10.86L134.38 10.86Q134.38 12.30 135.20 13.25L135.20 13.25L135.20 13.25Q136.02 14.21 137.27 14.21L137.27 14.21L137.27 14.21Q138.02 14.21 138.60 13.94L138.60 13.94L138.60 13.94Q139.17 13.66 139.64 13.06L139.64 13.06L140.23 13.51L140.23 13.51Q139.20 15 137.23 15ZM137.06 7.03L137.06 7.03L137.06 7.03Q136.01 7.03 135.29 7.80L135.29 7.80L135.29 7.80Q134.56 8.58 134.41 9.88L134.41 9.88L139.48 9.88L139.48 9.78L139.48 9.78Q139.44 8.56 138.78 7.80L138.78 7.80L138.78 7.80Q138.13 7.03 137.06 7.03ZM148.16 6.34L148.13 7.19L148.13 7.19Q147.84 7.13 147.50 7.13L147.50 7.13L147.50 7.13Q146.63 7.13 146.02 7.62L146.02 7.62L146.02 7.62Q145.41 8.11 145.16 9.04L145.16 9.04L145.16 14.84L144.23 14.84L144.23 6.39L145.14 6.39L145.16 7.73L145.16 7.73Q145.90 6.23 147.54 6.23L147.54 6.23L147.54 6.23Q147.93 6.23 148.16 6.34L148.16 6.34ZM151.79 6.39L154.38 13.55L156.95 6.39L157.91 6.39L154.76 14.84L154 14.84L150.83 6.39L151.79 6.39ZM164.62 15L164.62 15L164.62 15Q163.54 15 162.67 14.47L162.67 14.47L162.67 14.47Q161.80 13.94 161.31 12.99L161.31 12.99L161.31 12.99Q160.83 12.04 160.83 10.86L160.83 10.86L160.83 10.52L160.83 10.52Q160.83 9.30 161.30 8.33L161.30 8.33L161.30 8.33Q161.77 7.35 162.62 6.79L162.62 6.79L162.62 6.79Q163.46 6.23 164.45 6.23L164.45 6.23L164.45 6.23Q165.98 6.23 166.89 7.29L166.89 7.29L166.89 7.29Q167.79 8.34 167.79 10.16L167.79 10.16L167.79 10.68L161.76 10.68L161.76 10.86L161.76 10.86Q161.76 12.30 162.58 13.25L162.58 13.25L162.58 13.25Q163.41 14.21 164.66 14.21L164.66 14.21L164.66 14.21Q165.41 14.21 165.98 13.94L165.98 13.94L165.98 13.94Q166.55 13.66 167.02 13.06L167.02 13.06L167.61 13.51L167.61 13.51Q166.58 15 164.62 15ZM164.45 7.03L164.45 7.03L164.45 7.03Q163.39 7.03 162.67 7.80L162.67 7.80L162.67 7.80Q161.95 8.58 161.79 9.88L161.79 9.88L166.86 9.88L166.86 9.78L166.86 9.78Q166.82 8.56 166.16 7.80L166.16 7.80L166.16 7.80Q165.51 7.03 164.45 7.03ZM177.55 6.39L180.18 13.50L182.65 6.39L183.66 6.39L180.05 16.28L179.86 16.72L179.86 16.72Q179.16 18.26 177.71 18.26L177.71 18.26L177.71 18.26Q177.38 18.26 176.99 18.15L176.99 18.15L176.98 17.38L177.47 17.42L177.47 17.42Q178.16 17.42 178.58 17.08L178.58 17.08L178.58 17.08Q179.01 16.74 179.30 15.91L179.30 15.91L179.72 14.77L176.53 6.39L177.55 6.39ZM186.47 10.68L186.47 10.49L186.47 10.49Q186.47 9.27 186.94 8.30L186.94 8.30L186.94 8.30Q187.41 7.32 188.28 6.78L188.28 6.78L188.28 6.78Q189.14 6.23 190.23 6.23L190.23 6.23L190.23 6.23Q191.92 6.23 192.97 7.42L192.97 7.42L192.97 7.42Q194.02 8.60 194.02 10.55L194.02 10.55L194.02 10.75L194.02 10.75Q194.02 11.98 193.54 12.96L193.54 12.96L193.54 12.96Q193.07 13.94 192.21 14.47L192.21 14.47L192.21 14.47Q191.35 15 190.25 15L190.25 15L190.25 15Q188.57 15 187.52 13.82L187.52 13.82L187.52 13.82Q186.47 12.63 186.47 10.68L186.47 10.68ZM187.41 10.58L187.41 10.75L187.41 10.75Q187.41 12.27 188.19 13.24L188.19 13.24L188.19 13.24Q188.98 14.21 190.25 14.21L190.25 14.21L190.25 14.21Q191.52 14.21 192.30 13.24L192.30 13.24L192.30 13.24Q193.09 12.27 193.09 10.67L193.09 10.67L193.09 10.49L193.09 10.49Q193.09 9.52 192.73 8.72L192.73 8.72L192.73 8.72Q192.37 7.91 191.72 7.47L191.72 7.47L191.72 7.47Q191.07 7.03 190.23 7.03L190.23 7.03L190.23 7.03Q188.98 7.03 188.20 8.01L188.20 8.01L188.20 8.01Q187.41 8.99 187.41 10.58L187.41 10.58ZM203.40 14.84L203.38 13.77L203.38 13.77Q202.54 15 200.69 15L200.69 15L200.69 15Q199.34 15 198.63 14.21L198.63 14.21L198.63 14.21Q197.93 13.43 197.91 11.89L197.91 11.89L197.91 6.39L198.84 6.39L198.84 11.77L198.84 11.77Q198.84 14.19 200.80 14.19L200.80 14.19L200.80 14.19Q202.83 14.19 203.37 12.51L203.37 12.51L203.37 6.39L204.30 6.39L204.30 14.84L203.40 14.84ZM221.43 10.56L221.43 10.70L221.43 10.70Q221.43 12.68 220.55 13.84L220.55 13.84L220.55 13.84Q219.68 15 218.20 15L218.20 15L218.20 15Q216.44 15 215.53 13.69L215.53 13.69L215.49 14.84L214.62 14.84L214.62 2.84L215.55 2.84L215.55 7.62L215.55 7.62Q216.44 6.23 218.19 6.23L218.19 6.23L218.19 6.23Q219.69 6.23 220.56 7.38L220.56 7.38L220.56 7.38Q221.43 8.52 221.43 10.56L221.43 10.56ZM220.49 10.54L220.49 10.54L220.49 10.54Q220.49 8.87 219.84 7.96L219.84 7.96L219.84 7.96Q219.20 7.05 218.02 7.05L218.02 7.05L218.02 7.05Q217.12 7.05 216.49 7.49L216.49 7.49L216.49 7.49Q215.87 7.93 215.55 8.78L215.55 8.78L215.55 12.59L215.55 12.59Q216.25 14.19 218.03 14.19L218.03 14.19L218.03 14.19Q219.19 14.19 219.84 13.27L219.84 13.27L219.84 13.27Q220.49 12.36 220.49 10.54ZM228.77 15L228.77 15L228.77 15Q227.69 15 226.82 14.47L226.82 14.47L226.82 14.47Q225.95 13.94 225.46 12.99L225.46 12.99L225.46 12.99Q224.98 12.04 224.98 10.86L224.98 10.86L224.98 10.52L224.98 10.52Q224.98 9.30 225.45 8.33L225.45 8.33L225.45 8.33Q225.92 7.35 226.77 6.79L226.77 6.79L226.77 6.79Q227.61 6.23 228.59 6.23L228.59 6.23L228.59 6.23Q230.13 6.23 231.04 7.29L231.04 7.29L231.04 7.29Q231.94 8.34 231.94 10.16L231.94 10.16L231.94 10.68L225.91 10.68L225.91 10.86L225.91 10.86Q225.91 12.30 226.73 13.25L226.73 13.25L226.73 13.25Q227.55 14.21 228.80 14.21L228.80 14.21L228.80 14.21Q229.55 14.21 230.13 13.94L230.13 13.94L230.13 13.94Q230.70 13.66 231.17 13.06L231.17 13.06L231.76 13.51L231.76 13.51Q230.73 15 228.77 15ZM228.59 7.03L228.59 7.03L228.59 7.03Q227.54 7.03 226.82 7.80L226.82 7.80L226.82 7.80Q226.09 8.58 225.94 9.88L225.94 9.88L231.01 9.88L231.01 9.78L231.01 9.78Q230.97 8.56 230.31 7.80L230.31 7.80L230.31 7.80Q229.66 7.03 228.59 7.03ZM236.27 4.23L237.21 4.23L237.21 6.39L238.96 6.39L238.96 7.16L237.21 7.16L237.21 12.79L237.21 12.79Q237.21 13.49 237.46 13.84L237.46 13.84L237.46 13.84Q237.72 14.18 238.31 14.18L238.31 14.18L238.31 14.18Q238.55 14.18 239.07 14.10L239.07 14.10L239.11 14.87L239.11 14.87Q238.74 15 238.11 15L238.11 15L238.11 15Q237.15 15 236.71 14.44L236.71 14.44L236.71 14.44Q236.27 13.88 236.27 12.80L236.27 12.80L236.27 7.16L234.72 7.16L234.72 6.39L236.27 6.39L236.27 4.23ZM243.41 4.23L244.35 4.23L244.35 6.39L246.10 6.39L246.10 7.16L244.35 7.16L244.35 12.79L244.35 12.79Q244.35 13.49 244.61 13.84L244.61 13.84L244.61 13.84Q244.86 14.18 245.45 14.18L245.45 14.18L245.45 14.18Q245.69 14.18 246.21 14.10L246.21 14.10L246.25 14.87L246.25 14.87Q245.88 15 245.25 15L245.25 15L245.25 15Q244.29 15 243.85 14.44L243.85 14.44L243.85 14.44Q243.41 13.88 243.41 12.80L243.41 12.80L243.41 7.16L241.86 7.16L241.86 6.39L243.41 6.39L243.41 4.23ZM253.31 15L253.31 15L253.31 15Q252.23 15 251.36 14.47L251.36 14.47L251.36 14.47Q250.49 13.94 250.01 12.99L250.01 12.99L250.01 12.99Q249.52 12.04 249.52 10.86L249.52 10.86L249.52 10.52L249.52 10.52Q249.52 9.30 250.00 8.33L250.00 8.33L250.00 8.33Q250.47 7.35 251.31 6.79L251.31 6.79L251.31 6.79Q252.16 6.23 253.14 6.23L253.14 6.23L253.14 6.23Q254.68 6.23 255.58 7.29L255.58 7.29L255.58 7.29Q256.48 8.34 256.48 10.16L256.48 10.16L256.48 10.68L250.45 10.68L250.45 10.86L250.45 10.86Q250.45 12.30 251.28 13.25L251.28 13.25L251.28 13.25Q252.10 14.21 253.35 14.21L253.35 14.21L253.35 14.21Q254.10 14.21 254.68 13.94L254.68 13.94L254.68 13.94Q255.25 13.66 255.72 13.06L255.72 13.06L256.30 13.51L256.30 13.51Q255.27 15 253.31 15ZM253.14 7.03L253.14 7.03L253.14 7.03Q252.09 7.03 251.36 7.80L251.36 7.80L251.36 7.80Q250.64 8.58 250.48 9.88L250.48 9.88L255.55 9.88L255.55 9.78L255.55 9.78Q255.52 8.56 254.86 7.80L254.86 7.80L254.86 7.80Q254.20 7.03 253.14 7.03ZM264.23 6.34L264.21 7.19L264.21 7.19Q263.91 7.13 263.58 7.13L263.58 7.13L263.58 7.13Q262.70 7.13 262.10 7.62L262.10 7.62L262.10 7.62Q261.49 8.11 261.23 9.04L261.23 9.04L261.23 14.84L260.30 14.84L260.30 6.39L261.22 6.39L261.23 7.73L261.23 7.73Q261.98 6.23 263.62 6.23L263.62 6.23L263.62 6.23Q264.01 6.23 264.23 6.34L264.23 6.34ZM268.74 3.47L268.69 11.68L267.82 11.68L267.77 3.47L268.74 3.47ZM267.66 14.30L267.66 14.30L267.66 14.30Q267.66 14.03 267.84 13.85L267.84 13.85L267.84 13.85Q268.01 13.66 268.30 13.66L268.30 13.66L268.30 13.66Q268.60 13.66 268.78 13.85L268.78 13.85L268.78 13.85Q268.95 14.03 268.95 14.30L268.95 14.30L268.95 14.30Q268.95 14.55 268.78 14.73L268.78 14.73L268.78 14.73Q268.60 14.91 268.30 14.91L268.30 14.91L268.30 14.91Q268.01 14.91 267.84 14.73L267.84 14.73L267.84 14.73Q267.66 14.55 267.66 14.30Z" transform="rotate(0 134.71500062942505 10.550000190734863)"></path><defs id="SvgjsDefs1012"></defs></svg></g></svg>