<?xml version="1.0" encoding="utf-8"?>
<!-- Generator: Adobe Illustrator 23.0.3, SVG Export Plug-In . SVG Version: 6.00 Build 0)  -->
<svg version="1.1" id="SvgjsSvg1006" transform="" xmlns:svgjs="http://svgjs.com/svgjs"
	 xmlns="http://www.w3.org/2000/svg" xmlns:xlink="http://www.w3.org/1999/xlink" x="0px" y="0px" viewBox="0 0 1024.8 1024.9"
	 style="enable-background:new 0 0 1024.8 1024.9;" xml:space="preserve">
<style type="text/css">
	.st0{fill:#0F92E3;}
	.st1{fill:#262525;}
	.st2{fill:#656565;}
</style>
<g id="SvgjsG1009" transform="rotate(0 50 50)">
	<g>
		<g>
			<path class="st0" d="M236,236H0v236h78.4V315.2H236v78.4h-78.4V472h315.2V157.6h-78.4V236H316V78.4h157.6V0H236V236z
				 M315.2,315.2h78.4v78.4h-78.4V315.2z"/>
			<path class="st0" d="M157.6,630.4H236v78.4H78.4V551.2H0v236h236V1024h236v-78.4H315.2V788.1h78.4v78.4H472V551.2H157.6V630.4z
				 M315.2,630.4h78.4v78.4h-78.4V630.4z"/>
			<path class="st0" d="M945.7,708.8H788.1v-78.4h78.4V552H551.2v315.2h78.4v-78.4H708v157.6H551.2v78.4h236V788.1H1024V551.2h-78.4
				v157.6H945.7z M708.8,708.8h-78.4v-78.4h78.4V708.8z"/>
			<path class="st0" d="M788.1,236V0H551.2v78.4h157.6V236h-78.4v-78.4H552v315.2h315.2v-78.4h-78.4V316h157.6v157.6h78.4V236H788.1
				z M708.8,393.6h-78.4v-78.4h78.4V393.6z"/>
		</g>
	</g>
</g>
<g id="SvgjsG1011" transform="rotate(0 297.625 33.796875)">
	<path class="st1" d="M1262.7,221.6l1.9,2.4l-1.9,15.6l-41.6-1.2h-30.4l-1.1,155.2l0.7,76.7h-20.2l1.1-75.4l-1.1-156.4h-30.4
		l-42.4,1.2l-1.5-2.4l1.9-15.6L1262.7,221.6L1262.7,221.6z M1346.5,220.1L1346.5,220.1c17.1,0,34.3,3.9,51.7,11.7l0,0l-3.5,18.6
		l-3.9,1.1l0,0c-7.3-4.6-15-8.2-23.1-10.6l0,0l0,0c-8.2-2.5-16-3.7-23.6-3.7l0,0l0,0c-10.9,0-20.5,2.3-28.7,6.8l0,0l0,0
		c-8.1,4.6-14.3,10.5-18.6,17.7l0,0l0,0c-4.3,7.3-6.5,14.7-6.5,22.2l0,0l0,0c0,8.1,2.4,15,7.1,21l0,0l0,0
		c4.6,5.9,10.4,11.1,17.3,15.4l0,0l0,0c6.9,4.3,16.2,9.2,27.9,14.6l0,0l0,0c13.7,6.7,24.8,12.7,33.2,18l0,0l0,0
		c8.5,5.3,15.7,12.2,21.6,20.7l0,0l0,0c6,8.4,9,18.6,9,30.5l0,0l0,0c0,12.2-3.3,23.5-9.9,34l0,0l0,0c-6.6,10.5-16,18.8-28.1,25l0,0
		l0,0c-12,6.1-25.6,9.1-40.7,9.1l0,0l0,0c-10.7,0-21.5-1.5-32.7-4.5l0,0l0,0c-11.1-2.9-21.2-7.3-30.3-13l0,0l2.3-20.6l2.8-1.2l0,0
		c8.5,7.5,18.1,13.1,28.8,16.9l0,0l0,0c10.7,3.8,20.9,5.7,30.7,5.7l0,0l0,0c11.5,0,21.5-2.4,30-7.1l0,0l0,0
		c8.5-4.6,15.2-10.7,19.9-18.2l0,0l0,0c4.6-7.6,7-15.5,7-23.7l0,0l0,0c0-8.6-2.4-16.1-7.2-22.4l0,0l0,0
		c-4.8-6.3-10.6-11.6-17.5-15.8l0,0l0,0c-6.9-4.1-16.4-9.1-28.6-15.1l0,0l0,0c-13.5-6.5-24.4-12.3-32.8-17.5l0,0l0,0
		c-8.3-5.2-15.3-11.9-21-20.2l0,0l0,0c-5.7-8.3-8.5-18.3-8.5-30l0,0l0,0c0-11.9,3.2-22.9,9.5-32.9l0,0l0,0
		c6.3-10,15.3-17.9,26.8-23.7l0,0l0,0C1318.6,223,1331.7,220.1,1346.5,220.1L1346.5,220.1z M1539.7,219.7L1539.7,219.7
		c24.4,0,48.2,6.5,71.6,19.4l0,0l-4.7,18.6l-3.1,0.4l0,0c-23.3-14-45.4-21-66.2-21l0,0l0,0c-31.1,0-54.8,9.4-71.1,28.1l0,0l0,0
		c-16.2,18.8-24.3,46.6-24.3,83.4l0,0l0,0c0,35.3,7.3,61.8,21.8,79.4l0,0l0,0c14.5,17.6,36.1,26.4,64.6,26.4l0,0l0,0
		c9.8,0,19.1-0.7,27.8-2.1l0,0l0,0c8.7-1.4,20-4.1,33.7-8l0,0l0.4-36.1l-0.4-35.8l19.5-1.5l-0.4,35l0.8,52.5l0,0
		c-17.4,4.9-32.2,8.4-44.2,10.5l0,0l0,0c-12,2-24.5,3.2-37.5,3.5l0,0l0,0c-35,0-61.5-10.6-79.6-31.9l0,0l0,0c-18-21.2-27-51.6-27-91
		l0,0l0,0c0-41.8,10.2-73.9,30.7-96.3l0,0l0,0C1472.6,230.9,1501.8,219.7,1539.7,219.7L1539.7,219.7z M1772.7,239.1l-47.8,0.4
		l-0.8,98.4l45.6,0.4l39.6-0.8l1.9,2.4l-2.4,15.6L1724,355l-0.4,38.5l0.8,76.7h-20.3l1.2-75.4l-1.2-173.1h124.5l1.9,2.4l-2.4,16.3
		L1772.7,239.1z M1990,277.6l-0.8,98.4v26.1l0,0c0.5,22-5.8,39.2-19,51.4l0,0l0,0c-13.2,12.1-31.9,18.2-56,18.2l0,0l0,0
		c-23.9,0-42.2-6-54.9-18.1l0,0l0,0c-12.7-12-18.9-29.2-18.6-51.5l0,0l0.3-28.4l-0.3-96.1h19.5l-1.2,122.1l0,0
		c-0.3,18.2,4.4,32,14,41.5l0,0l0,0c9.6,9.5,23.6,14.2,42,14.2l0,0l0,0c18.4,0,32.5-4.7,42.1-14.2l0,0l0,0
		c9.6-9.5,14.3-23.3,14.3-41.5l0,0l-0.7-122.1H1990z M2135.6,453.8l1.6,1.9l-1.9,14.4h-97l0.4-58.3l-0.4-134.2h19.2l-0.8,132.7
		l0.4,43.5H2135.6z M2218.6,293.6h-38.9l-0.4,73.5l36.7,0.4l33.1-0.8l1.5,1.9l-1.5,14.8h-70v26.8l0.7,59.9h-19l0.4-58.3l-0.4-134.2
		h105.1l1.1,2.4l-1.9,14.7L2218.6,293.6z M2309.1,277.6l-0.7,132.7l0.3,59.9h-19l0.8-58.3l-0.8-134.2h19.4V277.6z M2463,453.8
		l1.5,1.9l-1.9,14.4h-96.9l0.3-58.3l-0.3-134.2h19l-0.8,132.7l0.4,43.5H2463z M2586.8,453.8l1.6,1.9l-1.9,14.4h-97l0.4-58.3
		l-0.4-134.2h19.2l-0.8,132.7l0.4,43.5H2586.8z M2792.4,277.6l20.7,192.5h-17.5l-5.5-58.8l-12-101.8h-1.9L2715,447.2h-16.4
		l-58.7-137.7h-2.4l-11.7,100.3l-5.8,60.3h-17l21.7-192.5h22.6l10.9,29.6l48.6,114.3h1.5l51.4-116.7l10.9-27.2L2792.4,277.6
		L2792.4,277.6z M2968,453.5l1.9,1.9l-2.3,14.7H2858l0.8-58.3l-0.8-134.2h109.8l1.5,2.4l-1.9,14.7l-47.9-1.1h-42l-0.4,69.2l39.7,0.4
		l34.2-0.8l1.2,2.4l-1.6,15.1l-35.3-0.7l-38.6,0.4v30.7l0.4,43.9h39.7L2968,453.5z M3156.6,277.2l-0.8,137.4v55.6h-20.2
		l-113.7-160.6h-1.5L3020,408l0.4,62.2h-17.9l0.8-56.8l-0.4-135.7h20.3l113.6,161h1.9V278.4L3156.6,277.2z M3320.9,277.6l1.1,2.4
		l-1.5,15.6l-34.6-1.5h-24.2l-0.7,116.3l0.7,59.9h-19l0.4-58.3l-0.4-117.8h-23.8l-35.3,1.5l-1.6-1.9l1.6-16h137.3V277.6z
		 M3462.1,220.1L3462.1,220.1c17.1,0,34.4,3.9,51.8,11.7l0,0l-3.5,18.6l-3.9,1.1l0,0c-7.3-4.6-15-8.2-23.1-10.6l0,0l0,0
		c-8.2-2.5-16-3.7-23.6-3.7l0,0l0,0c-10.9,0-20.5,2.3-28.7,6.8l0,0l0,0c-8.1,4.6-14.3,10.5-18.6,17.7l0,0l0,0
		c-4.3,7.3-6.5,14.7-6.5,22.2l0,0l0,0c0,8.1,2.4,15,7.1,21l0,0l0,0c4.6,5.9,10.4,11.1,17.3,15.4l0,0l0,0c6.8,4.3,16.1,9.2,27.8,14.6
		l0,0l0,0c13.8,6.7,24.9,12.7,33.3,18l0,0l0,0c8.5,5.3,15.7,12.2,21.6,20.7l0,0l0,0c6,8.4,9,18.6,9,30.5l0,0l0,0
		c0,12.2-3.3,23.5-9.9,34l0,0l0,0c-6.6,10.5-16,18.8-28.1,25l0,0l0,0c-12.1,6.1-25.6,9.1-40.7,9.1l0,0l0,0
		c-10.7,0-21.5-1.5-32.7-4.5l0,0l0,0c-11.2-2.9-21.3-7.3-30.4-13l0,0l2.4-20.6l2.8-1.2l0,0c8.5,7.5,18.1,13.1,28.8,16.9l0,0l0,0
		c10.7,3.8,20.9,5.7,30.7,5.7l0,0l0,0c11.4,0,21.4-2.4,30-7.1l0,0l0,0c8.5-4.6,15.2-10.7,19.9-18.2l0,0l0,0c4.6-7.6,7-15.5,7-23.7
		l0,0l0,0c0-8.6-2.4-16.1-7.2-22.4l0,0l0,0c-4.8-6.3-10.7-11.6-17.5-15.8l0,0l0,0c-6.9-4.1-16.5-9.1-28.7-15.1l0,0l0,0
		c-13.4-6.5-24.3-12.3-32.7-17.5l0,0l0,0c-8.3-5.2-15.3-11.9-21-20.2l0,0l0,0c-5.7-8.3-8.6-18.3-8.6-30l0,0l0,0
		c0-11.9,3.2-22.9,9.6-32.9l0,0l0,0c6.3-10,15.3-17.9,26.8-23.7l0,0l0,0C3434.2,223,3447.3,220.1,3462.1,220.1L3462.1,220.1z
		 M3668.5,453.5l1.9,1.9l-2.4,14.7h-109.8l0.8-58.3l-0.8-134.2H3668l1.5,2.4l-1.9,14.7l-47.8-1.1h-42.1l-0.3,69.2l39.6,0.4l34.3-0.8
		l1.1,2.4l-1.5,15.1l-35.4-0.7l-38.5,0.4v30.7l0.4,43.9h39.6L3668.5,453.5z M3777.6,391.5L3777.6,391.5
		c16.4,24.6,34.7,49.3,54.9,73.9l0,0v2.8l0,0c-4.9,2-10.6,3.5-17.1,4.3l0,0l-3.5-1.9l0,0c-19.3-25.9-36.1-50.8-50.6-74.7l0,0
		l-39.7,0.4v14l0.4,59.9h-19l0.7-58.3l-0.7-134.2l56.7-0.4l0,0c19.7,0,34.9,4.7,45.6,14.2l0,0l0,0c10.6,9.5,16,22.9,16,40.2l0,0l0,0
		c0,13.8-3.8,25.9-11.3,36.2l0,0l0,0C3802.4,378.3,3791.6,386.2,3777.6,391.5L3777.6,391.5z M3722.4,293.6l-0.8,86.3l40.5,0.8l0,0
		c13-3.3,22.8-9,29.4-17.1l0,0l0,0c6.6-8.1,9.9-18.2,9.9-30.4l0,0l0,0c0-25.4-14.9-38.9-44.8-40.4l0,0L3722.4,293.6z M4004.2,277.6
		l-77,192.5H3905l-70.5-192.5h19.9l4.7,17.9l56.8,154h1.5l62.7-153.3l4.6-18.6H4004.2z M4050.7,277.6l-0.8,132.7l0.4,59.9h-19
		l0.7-58.3l-0.7-134.2h19.4V277.6z M4171,276.1L4171,276.1c21.3,0,40,5,56.1,15.1l0,0l-3.9,17.5l-3.2,0.8l0,0
		c-6.8-5.5-14.5-9.7-23.1-12.7l0,0l0,0c-8.7-3-17.8-4.5-27.4-4.5l0,0l0,0c-22.1,0-38.8,6.9-50.4,20.7l0,0l0,0
		c-11.5,13.7-17.3,33.9-17.3,60.7l0,0l0,0c0,26.7,5.6,47,16.9,61l0,0l0,0c11.3,14,27.6,21,48.8,21l0,0l0,0c9.6,0,19.3-1.7,29-5l0,0
		l0,0c9.8-3.3,18.7-8,26.7-14l0,0l2.7,1.2l-1.5,17.5l0,0c-17.9,11.1-37,16.7-57.2,16.7l0,0l0,0c-27.4,0-48.6-8.4-63.4-25.3l0,0l0,0
		c-14.8-16.9-22.2-40.8-22.2-72l0,0l0,0c0-31.7,7.8-56,23.3-73.1l0,0l0,0C4120.4,284.7,4142.5,276.1,4171,276.1L4171,276.1z
		 M4370.1,453.5l1.9,1.9l-2.4,14.7h-109.8l0.8-58.3l-0.8-134.2h109.8l1.5,2.4l-1.9,14.7l-47.8-1.1h-42.1l-0.4,69.2l39.7,0.4
		l34.2-0.8l1.2,2.4l-1.5,15.1l-35.4-0.7l-38.5,0.4v30.7l0.3,43.9h39.7L4370.1,453.5z M4455.8,276.5L4455.8,276.5
		c15,0,29.6,3,43.6,8.9l0,0l-3.2,18.6l-3.5,0.8l0,0c-13-8.8-25.9-13.2-38.9-13.2l0,0l0,0c-13,0-23.3,3.5-30.9,10.6l0,0l0,0
		c-7.6,7.2-11.5,15.1-11.5,24l0,0l0,0c0,8.5,3.4,15.4,10.3,20.6l0,0l0,0c6.8,5.2,17.2,10.8,31.2,16.8l0,0l0,0
		c11.7,5.5,20.9,10.2,27.6,14.1l0,0l0,0c6.8,4,12.6,9.3,17.5,16l0,0l0,0c4.9,6.6,7.4,14.7,7.4,24.4l0,0l0,0c0,9.6-2.6,18.4-7.9,26.6
		l0,0l0,0c-5.3,8.2-12.9,14.7-22.8,19.7l0,0l0,0c-9.8,4.9-21.2,7.4-34.2,7.4l0,0l0,0c-8.8,0-17.9-1.1-27.2-3.3l0,0l0,0
		c-9.4-2.2-17.9-5.5-25.7-9.9l0,0l1.9-19.9l2.8-1.1l0,0c6.7,6.2,14.6,10.9,23.9,14.1l0,0l0,0c9.2,3.3,18,4.9,26.3,4.9l0,0l0,0
		c13,0,23.6-3.6,31.7-10.7l0,0l0,0c8.1-7.1,12.2-15.5,12.2-25.1l0,0l0,0c0-9.1-3.4-16.3-10.2-21.6l0,0l0,0
		c-6.9-5.3-17.6-11.3-32.2-18l0,0l0,0c-11.1-5.2-20.1-9.8-27-13.8l0,0l0,0c-6.9-4-12.7-9.3-17.5-15.8l0,0l0,0
		c-4.8-6.5-7.2-14.4-7.2-23.7l0,0l0,0c0-9.6,2.7-18.2,8-26l0,0l0,0c5.3-7.8,12.7-14,22.3-18.5l0,0l0,0
		C4432.4,278.8,4443.4,276.5,4455.8,276.5L4455.8,276.5z M4613.7,221.6l-1.2,171.9l0.8,76.7H4593l1.2-75.4l-1.2-173.1h20.7V221.6z
		 M4824.8,277.2l-0.8,137.4v55.6h-20.2l-113.7-160.6h-1.5l-0.4,98.4l0.4,62.2h-17.9l0.8-56.8l-0.4-135.7h20.2l113.7,161h1.9V278.4
		L4824.8,277.2z M4944,276.1L4944,276.1c21.3,0,40,5,56,15.1l0,0l-3.9,17.5l-3.1,0.8l0,0c-6.8-5.5-14.5-9.7-23.1-12.7l0,0l0,0
		c-8.7-3-17.9-4.5-27.4-4.5l0,0l0,0c-22.1,0-38.8,6.9-50.4,20.7l0,0l0,0c-11.5,13.7-17.3,33.9-17.3,60.7l0,0l0,0
		c0,26.7,5.6,47,16.9,61l0,0l0,0c11.3,14,27.5,21,48.8,21l0,0l0,0c9.6,0,19.2-1.7,29-5l0,0l0,0c9.7-3.3,18.6-8,26.6-14l0,0l2.8,1.2
		l-1.5,17.5l0,0c-18,11.1-37,16.7-57.2,16.7l0,0l0,0c-27.5,0-48.6-8.4-63.4-25.3l0,0l0,0c-14.8-16.9-22.2-40.8-22.2-72l0,0l0,0
		c0-31.7,7.8-56,23.3-73.1l0,0l0,0C4893.4,284.7,4915.4,276.1,4944,276.1L4944,276.1z"/>
</g>
<g id="SvgjsG1013" transform="rotate(0 241.234375 68.84375)">
	<path class="st2" d="M1105.8,632.6l21.3,84.9l3.6,18.1l4.4-17.3l25.3-85.7h8.9l24.9,85.7l4.4,17.4l3.8-18.2l21.1-84.9h10
		l-29.8,116.3h-9.5l-26.3-91l-3-11.6l-2.9,11.6l-27.1,91h-9.4l-29.7-116.3H1105.8z M1301.7,750.5L1301.7,750.5L1301.7,750.5
		c-7.3,0-14-1.8-20-5.4l0,0l0,0c-5.9-3.6-10.5-8.7-13.8-15.1l0,0l0,0c-3.3-6.5-5-13.7-5-21.8l0,0v-3.5l0,0c0-8.3,1.6-15.8,4.9-22.4
		l0,0l0,0c3.2-6.7,7.7-11.9,13.4-15.8l0,0l0,0c5.8-3.8,12-5.7,18.7-5.7l0,0l0,0c10.5,0,18.8,3.6,25,10.8l0,0l0,0
		c6.2,7.2,9.3,17,9.3,29.4l0,0v5.3h-61.9v1.8l0,0c0,9.8,2.8,18,8.5,24.5l0,0l0,0c5.6,6.5,12.7,9.8,21.2,9.8l0,0l0,0
		c5.1,0,9.7-0.9,13.6-2.8l0,0l0,0c3.9-1.9,7.4-4.9,10.7-9l0,0l6,4.6l0,0C1325.3,745.5,1315.1,750.5,1301.7,750.5z M1299.9,669
		L1299.9,669L1299.9,669c-7.2,0-13.2,2.6-18.2,7.9l0,0l0,0c-4.9,5.3-7.9,12.4-8.9,21.3l0,0h51.9v-1l0,0c-0.3-8.3-2.7-15.1-7.2-20.3
		l0,0l0,0C1313.1,671.6,1307.2,669,1299.9,669z M1377.8,626.1v11.4l-1.3,24.4h-7.2l0,0c0.3-15.8,0.4-27.7,0.4-35.7l0,0h8.1V626.1z
		 M1460.8,661.9l-0.3,8.7l0,0c-2-0.4-4.2-0.6-6.5-0.6l0,0l0,0c-6,0-11.1,1.7-15.2,5l0,0l0,0c-4.2,3.3-7.1,8.2-8.8,14.5l0,0v59.3
		h-9.5v-86.5h9.3l0.2,13.7l0,0c5.1-10.2,13.2-15.3,24.4-15.3l0,0l0,0C1457.1,660.8,1459.3,661.2,1460.8,661.9L1460.8,661.9z
		 M1528.1,750.5L1528.1,750.5L1528.1,750.5c-7.3,0-14-1.8-20-5.4l0,0l0,0c-5.9-3.6-10.5-8.7-13.8-15.1l0,0l0,0
		c-3.3-6.5-5-13.7-5-21.8l0,0v-3.5l0,0c0-8.3,1.6-15.8,4.9-22.4l0,0l0,0c3.2-6.7,7.7-11.9,13.4-15.8l0,0l0,0
		c5.8-3.8,12-5.7,18.7-5.7l0,0l0,0c10.5,0,18.8,3.6,25,10.8l0,0l0,0c6.2,7.2,9.3,17,9.3,29.4l0,0v5.3h-61.9v1.8l0,0
		c0,9.8,2.8,18,8.5,24.5l0,0l0,0c5.6,6.5,12.7,9.8,21.2,9.8l0,0l0,0c5.1,0,9.7-0.9,13.6-2.8l0,0l0,0c3.9-1.9,7.4-4.9,10.7-9l0,0
		l6,4.6l0,0C1551.7,745.5,1541.5,750.5,1528.1,750.5z M1526.4,669L1526.4,669L1526.4,669c-7.2,0-13.2,2.6-18.2,7.9l0,0l0,0
		c-4.9,5.3-7.9,12.4-8.9,21.3l0,0h51.9v-1l0,0c-0.3-8.3-2.7-15.1-7.2-20.3l0,0l0,0C1539.5,671.6,1533.6,669,1526.4,669z
		 M1669.6,626.1v51l0,0c3.1-5.2,7.2-9.2,12.1-12l0,0l0,0c4.8-2.9,10.2-4.3,16.1-4.3l0,0l0,0c9.3,0,16.2,2.6,20.7,7.9l0,0l0,0
		c4.5,5.3,6.8,13.1,6.9,23.5l0,0v56.7h-9.5v-56.8l0,0c-0.1-7.7-1.7-13.5-4.9-17.3l0,0l0,0c-3.2-3.8-8.4-5.6-15.5-5.6l0,0l0,0
		c-5.9,0-11.2,1.8-15.8,5.5l0,0l0,0c-4.5,3.7-7.9,8.7-10,14.9l0,0v59.2h-9.5V626.1H1669.6z M1804,750.5L1804,750.5L1804,750.5
		c-7.4,0-14-1.8-20-5.4l0,0l0,0c-5.9-3.6-10.5-8.7-13.8-15.1l0,0l0,0c-3.3-6.5-5-13.7-5-21.8l0,0v-3.5l0,0c0-8.3,1.6-15.8,4.8-22.4
		l0,0l0,0c3.3-6.7,7.8-11.9,13.5-15.8l0,0l0,0c5.7-3.8,12-5.7,18.7-5.7l0,0l0,0c10.5,0,18.8,3.6,25,10.8l0,0l0,0
		c6.1,7.2,9.2,17,9.2,29.4l0,0v5.3h-61.8v1.8l0,0c0,9.8,2.8,18,8.5,24.5l0,0l0,0c5.6,6.5,12.7,9.8,21.2,9.8l0,0l0,0
		c5.1,0,9.6-0.9,13.5-2.8l0,0l0,0c4-1.9,7.5-4.9,10.8-9l0,0l5.9,4.6l0,0C1827.6,745.5,1817.4,750.5,1804,750.5z M1802.2,669
		L1802.2,669L1802.2,669c-7.2,0-13.3,2.6-18.2,7.9l0,0l0,0c-4.9,5.3-7.9,12.4-9,21.3l0,0h51.9v-1l0,0c-0.3-8.3-2.6-15.1-7.1-20.3
		l0,0l0,0C1815.4,671.6,1809.5,669,1802.2,669z M1915.8,661.9l-0.2,8.7l0,0c-2-0.4-4.2-0.6-6.5-0.6l0,0l0,0c-6,0-11.1,1.7-15.2,5
		l0,0l0,0c-4.2,3.3-7.1,8.2-8.9,14.5l0,0v59.3h-9.5v-86.5h9.4l0.1,13.7l0,0c5.1-10.2,13.2-15.3,24.5-15.3l0,0l0,0
		C1912.2,660.8,1914.3,661.2,1915.8,661.9L1915.8,661.9z M1983.2,750.5L1983.2,750.5L1983.2,750.5c-7.4,0-14-1.8-20-5.4l0,0l0,0
		c-5.9-3.6-10.5-8.7-13.8-15.1l0,0l0,0c-3.3-6.5-5-13.7-5-21.8l0,0v-3.5l0,0c0-8.3,1.6-15.8,4.8-22.4l0,0l0,0
		c3.3-6.7,7.8-11.9,13.5-15.8l0,0l0,0c5.7-3.8,12-5.7,18.7-5.7l0,0l0,0c10.5,0,18.8,3.6,25,10.8l0,0l0,0c6.1,7.2,9.2,17,9.2,29.4
		l0,0v5.3h-61.8v1.8l0,0c0,9.8,2.8,18,8.5,24.5l0,0l0,0c5.6,6.5,12.7,9.8,21.2,9.8l0,0l0,0c5.1,0,9.6-0.9,13.5-2.8l0,0l0,0
		c4-1.9,7.5-4.9,10.8-9l0,0l5.9,4.6l0,0C2006.8,745.5,1996.6,750.5,1983.2,750.5z M1981.5,669L1981.5,669L1981.5,669
		c-7.2,0-13.3,2.6-18.2,7.9l0,0l0,0c-4.9,5.3-7.9,12.4-9,21.3l0,0h51.9v-1l0,0c-0.3-8.3-2.6-15.1-7.1-20.3l0,0l0,0
		C1994.6,671.6,1988.7,669,1981.5,669z M2120.4,640.3h9.6v22.1h17.9v7.9H2130v57.6l0,0c0,4.8,0.9,8.4,2.6,10.7l0,0l0,0
		c1.7,2.3,4.6,3.5,8.7,3.5l0,0l0,0c1.6,0,4.2-0.3,7.8-0.8l0,0l0.4,7.9l0,0c-2.5,0.9-5.9,1.3-10.2,1.3l0,0l0,0
		c-6.6,0-11.4-1.9-14.3-5.7l0,0l0,0c-3-3.8-4.5-9.4-4.5-16.8l0,0v-57.7h-16v-7.9h16v-22.1H2120.4z M2181.4,706.3v-1.9l0,0
		c0-8.3,1.6-15.8,4.8-22.4l0,0l0,0c3.3-6.7,7.9-11.9,13.7-15.6l0,0l0,0c5.9-3.8,12.6-5.6,20.1-5.6l0,0l0,0c11.5,0,20.9,4.1,28,12.2
		l0,0l0,0c7.2,8,10.8,18.7,10.8,32l0,0v2l0,0c0,8.4-1.6,15.9-4.8,22.6l0,0l0,0c-3.3,6.7-7.9,11.8-13.7,15.4l0,0l0,0
		c-5.8,3.6-12.5,5.4-20.1,5.4l0,0l0,0c-11.5,0-20.8-4-28-12.1l0,0l0,0C2184.9,730.3,2181.4,719.6,2181.4,706.3L2181.4,706.3z
		 M2191,705.3v1.7l0,0c0,10.4,2.7,18.9,8,25.5l0,0l0,0c5.4,6.6,12.4,9.9,21.1,9.9l0,0l0,0c8.7,0,15.7-3.3,21-9.9l0,0l0,0
		c5.4-6.6,8.1-15.4,8.1-26.3l0,0v-1.8l0,0c0-6.6-1.2-12.7-3.7-18.1l0,0l0,0c-2.5-5.5-5.9-9.8-10.3-12.8l0,0l0,0
		c-4.4-3-9.5-4.5-15.2-4.5l0,0l0,0c-8.5,0-15.5,3.3-20.9,10l0,0l0,0C2193.7,685.7,2191,694.5,2191,705.3L2191,705.3z M2411.1,727
		L2411.1,727L2411.1,727c0-4.8-1.9-8.6-5.7-11.5l0,0l0,0c-3.8-2.9-9.6-5.1-17.2-6.8l0,0l0,0c-7.7-1.6-13.7-3.5-17.9-5.6l0,0l0,0
		c-4.2-2.1-7.4-4.7-9.4-7.7l0,0l0,0c-2-3.1-3.1-6.8-3.1-11.1l0,0l0,0c0-6.8,2.9-12.4,8.6-16.9l0,0l0,0c5.7-4.5,13-6.8,21.9-6.8l0,0
		l0,0c9.6,0,17.4,2.4,23.2,7.2l0,0l0,0c5.8,4.8,8.7,11,8.7,18.7l0,0h-9.5l0,0c0-5-2.2-9.3-6.5-12.7l0,0l0,0c-4.2-3.3-9.6-5-16-5l0,0
		l0,0c-6.3,0-11.3,1.4-15.2,4.2l0,0l0,0c-3.8,2.8-5.7,6.4-5.7,10.9l0,0l0,0c0,4.3,1.6,7.6,4.7,10l0,0l0,0c3.2,2.4,9,4.6,17.4,6.5
		l0,0l0,0c8.4,1.9,14.7,4,18.8,6.2l0,0l0,0c4.2,2.3,7.3,4.9,9.3,8.1l0,0l0,0c2,3.1,3.1,7,3.1,11.5l0,0l0,0c0,7.3-2.9,13.1-8.8,17.5
		l0,0l0,0c-5.9,4.4-13.7,6.5-23.1,6.5l0,0l0,0c-10,0-18.2-2.4-24.5-7.3l0,0l0,0c-6.3-4.9-9.4-11.1-9.4-18.5l0,0h9.6l0,0
		c0.3,5.6,2.7,9.9,7.1,13l0,0l0,0c4.4,3.1,10.1,4.7,17.2,4.7l0,0l0,0c6.7,0,12.1-1.5,16.2-4.4l0,0l0,0
		C2409,735.1,2411.1,731.4,2411.1,727z M2496.2,750.5L2496.2,750.5L2496.2,750.5c-7.3,0-13.9-1.8-19.9-5.4l0,0l0,0
		c-6-3.6-10.7-8.7-13.9-15.1l0,0l0,0c-3.3-6.5-4.9-13.7-4.9-21.8l0,0v-3.5l0,0c0-8.3,1.6-15.8,4.8-22.4l0,0l0,0
		c3.2-6.7,7.7-11.9,13.4-15.8l0,0l0,0c5.8-3.8,12-5.7,18.7-5.7l0,0l0,0c10.5,0,18.8,3.6,25,10.8l0,0l0,0c6.2,7.2,9.3,17,9.3,29.4
		l0,0v5.3H2467v1.8l0,0c0,9.8,2.8,18,8.4,24.5l0,0l0,0c5.6,6.5,12.7,9.8,21.2,9.8l0,0l0,0c5.1,0,9.7-0.9,13.6-2.8l0,0l0,0
		c3.9-1.9,7.4-4.9,10.7-9l0,0l6,4.6l0,0C2519.8,745.5,2509.6,750.5,2496.2,750.5z M2494.4,669L2494.4,669L2494.4,669
		c-7.2,0-13.2,2.6-18.1,7.9l0,0l0,0c-5,5.3-8,12.4-9,21.3l0,0h51.9v-1l0,0c-0.3-8.3-2.7-15.1-7.2-20.3l0,0l0,0
		C2507.6,671.6,2501.7,669,2494.4,669z M2608.1,661.9l-0.3,8.7l0,0c-2-0.4-4.1-0.6-6.5-0.6l0,0l0,0c-5.9,0-11,1.7-15.2,5l0,0l0,0
		c-4.2,3.3-7.1,8.2-8.8,14.5l0,0v59.3h-9.5v-86.5h9.3l0.2,13.7l0,0c5.1-10.2,13.2-15.3,24.4-15.3l0,0l0,0
		C2604.4,660.8,2606.5,661.2,2608.1,661.9L2608.1,661.9z M2645.3,662.4l26.5,73.3l26.3-73.3h9.8l-32.3,86.5h-7.8l-32.5-86.5H2645.3z
		 M2776.6,750.5L2776.6,750.5L2776.6,750.5c-7.4,0-14-1.8-20-5.4l0,0l0,0c-5.9-3.6-10.6-8.7-13.9-15.1l0,0l0,0
		c-3.3-6.5-4.9-13.7-4.9-21.8l0,0v-3.5l0,0c0-8.3,1.6-15.8,4.8-22.4l0,0l0,0c3.2-6.7,7.7-11.9,13.5-15.8l0,0l0,0
		c5.7-3.8,12-5.7,18.7-5.7l0,0l0,0c10.4,0,18.8,3.6,25,10.8l0,0l0,0c6.1,7.2,9.2,17,9.2,29.4l0,0v5.3h-61.8v1.8l0,0
		c0,9.8,2.8,18,8.4,24.5l0,0l0,0c5.7,6.5,12.8,9.8,21.3,9.8l0,0l0,0c5.1,0,9.6-0.9,13.5-2.8l0,0l0,0c3.9-1.9,7.4-4.9,10.7-9l0,0
		l6,4.6l0,0C2800.2,745.5,2790,750.5,2776.6,750.5z M2774.9,669L2774.9,669L2774.9,669c-7.2,0-13.3,2.6-18.2,7.9l0,0l0,0
		c-4.9,5.3-7.9,12.4-9,21.3l0,0h51.9v-1l0,0c-0.3-8.3-2.7-15.1-7.2-20.3l0,0l0,0C2788,671.6,2782.1,669,2774.9,669z M2909.1,662.4
		l26.9,72.7l25.3-72.7h10.3l-37,101.2l-1.9,4.5l0,0c-4.8,10.5-12.1,15.8-22,15.8l0,0l0,0c-2.3,0-4.7-0.4-7.4-1.1l0,0l-0.1-7.9l5,0.4
		l0,0c4.7,0,8.5-1.2,11.4-3.5l0,0l0,0c2.9-2.3,5.4-6.3,7.4-12l0,0l4.3-11.7l-32.7-85.7H2909.1z M3000.4,706.3v-1.9l0,0
		c0-8.3,1.6-15.8,4.8-22.4l0,0l0,0c3.2-6.7,7.8-11.9,13.7-15.6l0,0l0,0c5.9-3.8,12.5-5.6,20-5.6l0,0l0,0c11.5,0,20.9,4.1,28.1,12.2
		l0,0l0,0c7.2,8,10.8,18.7,10.8,32l0,0v2l0,0c0,8.4-1.6,15.9-4.9,22.6l0,0l0,0c-3.2,6.7-7.7,11.8-13.6,15.4l0,0l0,0
		c-5.9,3.6-12.6,5.4-20.1,5.4l0,0l0,0c-11.5,0-20.8-4-28-12.1l0,0l0,0C3004,730.3,3000.4,719.6,3000.4,706.3L3000.4,706.3z
		 M3010,705.3v1.7l0,0c0,10.4,2.7,18.9,8,25.5l0,0l0,0c5.4,6.6,12.4,9.9,21.1,9.9l0,0l0,0c8.7,0,15.7-3.3,21-9.9l0,0l0,0
		c5.4-6.6,8.1-15.4,8.1-26.3l0,0v-1.8l0,0c0-6.6-1.2-12.7-3.7-18.1l0,0l0,0c-2.5-5.5-5.9-9.8-10.3-12.8l0,0l0,0
		c-4.4-3-9.5-4.5-15.3-4.5l0,0l0,0c-8.5,0-15.5,3.3-20.8,10l0,0l0,0C3012.7,685.7,3010,694.5,3010,705.3L3010,705.3z M3173.8,748.9
		l-0.2-10.9l0,0c-5.7,8.4-14.9,12.6-27.5,12.6l0,0l0,0c-9.2,0-16.2-2.7-21.1-8.1l0,0l0,0c-4.8-5.3-7.2-13.2-7.4-23.7l0,0v-56.3h9.5
		v55l0,0c0,16.5,6.7,24.8,20.1,24.8l0,0l0,0c13.9,0,22.6-5.7,26.3-17.2l0,0v-62.6h9.5V749L3173.8,748.9L3173.8,748.9z M3358.4,705.1
		v1.4l0,0c0,13.5-3,24.2-9,32.1l0,0l0,0c-5.9,7.9-14,11.9-24.1,11.9l0,0l0,0c-12,0-21.1-4.5-27.3-13.4l0,0l-0.4,11.8h-8.9V626.1h9.5
		V675l0,0c6.1-9.5,15.1-14.2,27-14.2l0,0l0,0c10.2,0,18.3,3.9,24.3,11.8l0,0l0,0C3355.4,680.3,3358.4,691.2,3358.4,705.1
		L3358.4,705.1z M3348.8,704.9L3348.8,704.9L3348.8,704.9c0-11.4-2.2-20.2-6.7-26.4l0,0l0,0c-4.4-6.2-10.6-9.3-18.6-9.3l0,0l0,0
		c-6.1,0-11.4,1.5-15.7,4.5l0,0l0,0c-4.2,3-7.4,7.4-9.6,13.2l0,0v39l0,0c4.8,10.9,13.2,16.4,25.4,16.4l0,0l0,0
		c7.9,0,14.1-3.1,18.5-9.4l0,0l0,0C3346.6,726.6,3348.8,717.3,3348.8,704.9z M3433.6,750.5L3433.6,750.5L3433.6,750.5
		c-7.4,0-14-1.8-20-5.4l0,0l0,0c-5.9-3.6-10.6-8.7-13.9-15.1l0,0l0,0c-3.3-6.5-4.9-13.7-4.9-21.8l0,0v-3.5l0,0
		c0-8.3,1.6-15.8,4.8-22.4l0,0l0,0c3.2-6.7,7.7-11.9,13.5-15.8l0,0l0,0c5.7-3.8,11.9-5.7,18.6-5.7l0,0l0,0
		c10.5,0,18.9,3.6,25.1,10.8l0,0l0,0c6.1,7.2,9.2,17,9.2,29.4l0,0v5.3h-61.8v1.8l0,0c0,9.8,2.8,18,8.4,24.5l0,0l0,0
		c5.6,6.5,12.7,9.8,21.2,9.8l0,0l0,0c5.1,0,9.7-0.9,13.6-2.8l0,0l0,0c3.9-1.9,7.4-4.9,10.7-9l0,0l6,4.6l0,0
		C3457.2,745.5,3447,750.5,3433.6,750.5z M3431.7,669L3431.7,669L3431.7,669c-7.2,0-13.2,2.6-18.1,7.9l0,0l0,0c-5,5.3-8,12.4-9,21.3
		l0,0h51.9v-1l0,0c-0.3-8.3-2.7-15.1-7.2-20.3l0,0l0,0C3444.9,671.6,3439,669,3431.7,669z M3510.4,640.3h9.6v22.1h17.9v7.9H3520
		v57.6l0,0c0,4.8,0.9,8.4,2.6,10.7l0,0l0,0c1.8,2.3,4.7,3.5,8.7,3.5l0,0l0,0c1.6,0,4.2-0.3,7.8-0.8l0,0l0.4,7.9l0,0
		c-2.5,0.9-5.9,1.3-10.2,1.3l0,0l0,0c-6.6,0-11.3-1.9-14.3-5.7l0,0l0,0c-3-3.8-4.5-9.4-4.5-16.8l0,0v-57.7h-15.9v-7.9h15.9v-22.1
		H3510.4z M3583.5,640.3h9.6v22.1h17.9v7.9h-17.9v57.6l0,0c0,4.8,0.9,8.4,2.7,10.7l0,0l0,0c1.7,2.3,4.6,3.5,8.6,3.5l0,0l0,0
		c1.6,0,4.2-0.3,7.8-0.8l0,0l0.4,7.9l0,0c-2.5,0.9-5.9,1.3-10.2,1.3l0,0l0,0c-6.6,0-11.3-1.9-14.3-5.7l0,0l0,0
		c-3-3.8-4.5-9.4-4.5-16.8l0,0v-57.7h-15.9v-7.9h15.9v-22.1H3583.5z M3684.9,750.5L3684.9,750.5L3684.9,750.5c-7.4,0-14-1.8-20-5.4
		l0,0l0,0c-5.9-3.6-10.5-8.7-13.8-15.1l0,0l0,0c-3.3-6.5-5-13.7-5-21.8l0,0v-3.5l0,0c0-8.3,1.6-15.8,4.9-22.4l0,0l0,0
		c3.2-6.7,7.7-11.9,13.4-15.8l0,0l0,0c5.8-3.8,12.1-5.7,18.7-5.7l0,0l0,0c10.5,0,18.8,3.6,25,10.8l0,0l0,0c6.1,7.2,9.2,17,9.2,29.4
		l0,0v5.3h-61.8v1.8l0,0c0,9.8,2.8,18,8.5,24.5l0,0l0,0c5.6,6.5,12.7,9.8,21.2,9.8l0,0l0,0c5.1,0,9.7-0.9,13.6-2.8l0,0l0,0
		c3.9-1.9,7.4-4.9,10.7-9l0,0l5.9,4.6l0,0C3708.5,745.5,3698.3,750.5,3684.9,750.5z M3683.1,669L3683.1,669L3683.1,669
		c-7.2,0-13.2,2.6-18.2,7.9l0,0l0,0c-4.9,5.3-7.9,12.4-9,21.3l0,0h51.9v-1l0,0c-0.2-8.3-2.6-15.1-7.1-20.3l0,0l0,0
		C3696.2,671.6,3690.4,669,3683.1,669z M3796.7,661.9l-0.2,8.7l0,0c-2-0.4-4.2-0.6-6.5-0.6l0,0l0,0c-6,0-11.1,1.7-15.2,5l0,0l0,0
		c-4.2,3.3-7.1,8.2-8.9,14.5l0,0v59.3h-9.5v-86.5h9.4l0.1,13.7l0,0c5.1-10.2,13.3-15.3,24.5-15.3l0,0l0,0
		C3793.1,660.8,3795.2,661.2,3796.7,661.9L3796.7,661.9z M3842.9,632.6l-0.5,84h-8.9l-0.5-84H3842.9z M3831.8,743.4L3831.8,743.4
		L3831.8,743.4c0-1.8,0.6-3.4,1.8-4.6l0,0l0,0c1.2-1.3,2.7-1.9,4.7-1.9l0,0l0,0c2,0,3.7,0.6,4.9,1.9l0,0l0,0
		c1.2,1.2,1.7,2.8,1.7,4.6l0,0l0,0c0,1.7-0.6,3.2-1.7,4.4l0,0l0,0c-1.2,1.2-2.9,1.8-4.9,1.8l0,0l0,0c-2,0-3.5-0.6-4.7-1.8l0,0l0,0
		C3832.4,746.5,3831.8,745.1,3831.8,743.4z"/>
</g>
</svg>
