<svg width="180" height="54" viewBox="0 0 180 54" fill="none" xmlns="http://www.w3.org/2000/svg">
  <g>
    <path d="M42.8 23.5h-9.6v-9.6h9.6v9.6zm-32 9.6h9.6v-9.6h-9.6v9.6zm0-19.2h9.6v-9.6h-9.6v9.6zm19.2 0h-9.6v9.6h9.6v-9.6zm0 19.2h-9.6v9.6h9.6v-9.6zm12.8 0h-9.6v9.6h9.6v-9.6z" fill="#00A6E6"/>
    <path d="M10.8 4.3h32v32h-32v-32z" stroke="#062C43" stroke-width="2" fill="none"/>
  </g>
  <g>
    <path d="M61.5 18.5h2.8v12.2h5.6v2.4h-8.4V18.5z" fill="#062C43"/>
    <path d="M72.5 18.5h1.9l6.8 10.3V18.5h2.6v14.6h-1.8l-6.9-10.4v10.4h-2.6V18.5z" fill="#062C43"/>
    <path d="M92.7 18.5h2.8l4.9 14.6h-2.9L96.4 30h-5l-1.1 3.1h-2.8l5.2-14.6zm3 9.1l-1.7-5.2-1.8 5.2h3.5z" fill="#062C43"/>
    <path d="M105.2 30.7V33h-2.7V18.5h2.7v2.3c0.6-1.6 2.1-2.5 4-2.5 3.1 0 5 2.3 5 5.6v8.7h-2.7v-8.4c0-2.1-1-3.4-2.9-3.4-1.9 0-3.4 1.3-3.4 3.9v6z" fill="#062C43"/>
    <path d="M116.9 25.8c0-4.3 3.3-7.6 7.7-7.6 2.8 0 5.1 1.4 6.4 3.5l-2.3 1.3c-0.9-1.3-2.4-2.1-4.1-2.1-2.8 0-4.9 2.2-4.9 4.9s2.1 4.9 4.9 4.9c1.7 0 3.2-0.8 4.1-2.1l2.3 1.3c-1.3 2.1-3.7 3.5-6.4 3.5-4.4 0-7.7-3.3-7.7-7.6z" fill="#062C43"/>
    <path d="M133.4 25.8c0-4.3 3.3-7.6 7.7-7.6 4.4 0 7.7 3.3 7.7 7.6s-3.3 7.6-7.7 7.6c-4.4 0-7.7-3.3-7.7-7.6zm12.7 0c0-2.7-2.1-4.9-4.9-4.9-2.8 0-4.9 2.2-4.9 4.9s2.1 4.9 4.9 4.9c2.8 0 4.9-2.2 4.9-4.9z" fill="#062C43"/>
    <path d="M150.4 25.8c0-4.3 3.3-7.6 7.7-7.6 2.8 0 5.1 1.4 6.4 3.5l-2.3 1.3c-0.9-1.3-2.4-2.1-4.1-2.1-2.8 0-4.9 2.2-4.9 4.9s2.1 4.9 4.9 4.9c1.7 0 3.2-0.8 4.1-2.1l2.3 1.3c-1.3 2.1-3.7 3.5-6.4 3.5-4.4 0-7.7-3.3-7.7-7.6z" fill="#062C43"/>
    <path d="M169.5 18.5h2.7v14.6h-2.7V18.5z" fill="#062C43"/>
    <path d="M60.5 38h9.2c3.6 0 5.9 2.1 5.9 5.2 0 3.1-2.3 5.2-5.9 5.2h-6.4v4.2h-2.8V38zm9 7.9c1.9 0 3.1-1.1 3.1-2.7s-1.2-2.7-3.1-2.7h-6.2v5.4h6.2z" fill="#00A6E6"/>
    <path d="M78 47.3c0-3.2 2.5-5.7 5.8-5.7 3.4 0 5.8 2.4 5.8 6v0.7h-8.8c0.3 1.7 1.6 2.9 3.5 2.9 1.2 0 2.5-0.5 3.2-1.3l1.5 1.7c-1.1 1.2-2.9 1.9-4.9 1.9-3.6-0.1-6.1-2.7-6.1-6.2zm5.7-3.3c-2 0-3.1 1.4-3.3 2.9h6.6c-0.2-1.5-1.3-2.9-3.3-2.9z" fill="#00A6E6"/>
    <path d="M93.1 47.3c0-3.2 2.5-5.7 5.8-5.7 3.4 0 5.8 2.4 5.8 6v0.7h-8.8c0.3 1.7 1.6 2.9 3.5 2.9 1.2 0 2.5-0.5 3.2-1.3l1.5 1.7c-1.1 1.2-2.9 1.9-4.9 1.9-3.6-0.1-6.1-2.7-6.1-6.2zm5.8-3.3c-2 0-3.1 1.4-3.3 2.9h6.6c-0.2-1.5-1.3-2.9-3.3-2.9z" fill="#00A6E6"/>
    <path d="M107.5 47.3c0-3.3 2.5-5.7 5.9-5.7 2.2 0 4 1.1 4.9 2.8v-8.1h2.7v16.2h-2.7v-2.6c-0.9 1.7-2.8 2.8-4.9 2.8-3.4 0.1-5.9-2.3-5.9-5.4zm11 0c0-2-1.6-3.5-3.6-3.5-2 0-3.6 1.5-3.6 3.5s1.6 3.4 3.6 3.4c2 0.1 3.6-1.4 3.6-3.4z" fill="#00A6E6"/>
    <path d="M128.3 47.3c0-3.3 2.5-5.7 5.9-5.7 2.1 0 4 1.1 4.9 2.8v-2.6h2.7v10.8h-2.7v-2.6c-0.9 1.7-2.8 2.8-4.9 2.8-3.4 0-5.9-2.3-5.9-5.5zm11 0c0-2-1.6-3.5-3.6-3.5-2 0-3.6 1.5-3.6 3.5s1.6 3.4 3.6 3.4c2 0.1 3.6-1.4 3.6-3.4z" fill="#00A6E6"/>
    <path d="M149.4 47.3c0-3.3 2.5-5.7 5.9-5.7 2.2 0 4 1.1 4.9 2.8v-2.6h2.7v10.8h-2.7v-2.6c-0.9 1.7-2.8 2.8-4.9 2.8-3.4 0-5.9-2.3-5.9-5.5zm11 0c0-2-1.6-3.5-3.6-3.5-2 0-3.6 1.5-3.6 3.5s1.6 3.4 3.6 3.4c2 0.1 3.6-1.4 3.6-3.4z" fill="#00A6E6"/>
    <path d="M172.5 44.9v-3.1h2.8v10.8h-2.8v-4.5h-7.6v4.5h-2.8V41.8h2.8v3.1h7.6z" fill="#00A6E6"/>
  </g>
</svg>
