<svg width="1200" height="800" xmlns="http://www.w3.org/2000/svg">
  <!-- Background gradient -->
  <defs>
    <linearGradient id="bgGradient" x1="0%" y1="0%" x2="100%" y2="100%">
      <stop offset="0%" style="stop-color:#0f92e3;stop-opacity:0.9" />
      <stop offset="100%" style="stop-color:#062C43;stop-opacity:0.9" />
    </linearGradient>
  </defs>
  
  <!-- Background rectangle -->
  <rect width="100%" height="100%" fill="url(#bgGradient)" />
  
  <!-- Abstract warehouse pattern -->
  <g fill="none" stroke="#ffffff" stroke-width="1" opacity="0.1">
    <!-- Shelves and racks patterns -->
    <rect x="100" y="100" width="200" height="300" />
    <rect x="350" y="200" width="200" height="200" />
    <rect x="600" y="150" width="150" height="350" />
    <rect x="800" y="250" width="250" height="200" />
    
    <!-- Connecting lines -->
    <line x1="200" y1="0" x2="200" y2="800" />
    <line x1="450" y1="0" x2="450" y2="800" />
    <line x1="700" y1="0" x2="700" y2="800" />
    <line x1="900" y1="0" x2="900" y2="800" />
    
    <line x1="0" y1="150" x2="1200" y2="150" />
    <line x1="0" y1="300" x2="1200" y2="300" />
    <line x1="0" y1="450" x2="1200" y2="450" />
    <line x1="0" y1="600" x2="1200" y2="600" />
  </g>
  
  <!-- Overlay shapes for depth -->
  <g fill="#ffffff" opacity="0.05">
    <circle cx="250" cy="200" r="100" />
    <circle cx="800" cy="600" r="150" />
    <circle cx="500" cy="400" r="200" />
    <rect x="0" y="700" width="1200" height="100" />
  </g>
</svg>